;<svg width="301" height="204" viewBox="0 0 301 204" fill="none" xmlns="http://www.w3.org/2000/svg">
  <path
    d="M96.238 97.1098C96.238 91.3764 108.297 83 104.797 82C104.797 82 102.297 82 100.297 82C87.1377 82 77.5246 89.4259 77.5246 98.351C77.5246 107.276 88.1835 114.502 101.343 114.502C103.534 114.502 105.655 114.28 107.673 113.911C100.722 110.01 96.238 103.951 96.238 97.1246V97.1098Z"
    stroke="white"
    stroke-width="4"
    stroke-miterlimit="10"
  />
  <path
    d="M127.797 98.2098C127.797 89.9024 117.855 83.0645 104.975 81.9849C99.3079 85.8686 95.7969 91.147 95.7969 96.9502C95.7969 103.878 98.2969 115 108.297 114C118.817 112.948 127.797 105.737 127.797 98.1948V98.2098Z"
    fill="white"
    stroke="white"
    stroke-width="4"
    stroke-miterlimit="10"
  />
  <path
    d="M106.207 94.3267C108.586 94.3267 110.514 92.3985 110.514 90.0198C110.514 87.6412 108.586 85.7129 106.207 85.7129C103.829 85.7129 101.9 87.6412 101.9 90.0198C101.9 92.3985 103.829 94.3267 106.207 94.3267Z"
    fill="#F7C544"
  />
  <path
    d="M203.113 79.2524L162.197 98.996L203.113 111.554"
    stroke="white"
    stroke-width="4"
    stroke-miterlimit="10"
    stroke-linecap="round"
  />
  <path
    d="M218.187 133.089C217.558 134.669 216.74 136.185 215.874 137.655C211.059 145.838 203.947 152.726 195.781 157.829C180.707 167.261 163.92 171.5 146.297 171.5C131.05 171.5 115.55 169.994 100.901 165.049C89.3362 161.147 78.7468 154.496 70.9424 145.333C67.8269 141.667 64.9003 137.544 63.138 133.089"
    stroke="white"
    stroke-width="6"
    stroke-miterlimit="10"
    stroke-linecap="round"
  />
  <path
    d="M179.425 166.396C179.425 166.396 181.139 207.941 205.239 201.276C205.239 201.276 235.504 200.622 203.493 154.624"
    stroke="white"
    stroke-width="4"
    stroke-miterlimit="10"
  />
  <path d="M190.192 161.084L209.573 199.846" stroke="white" stroke-width="4" stroke-miterlimit="10" />
  <path
    d="M7.30523 49.6557C11.5251 46.1917 15.9655 46.3019 17.0992 45.4516C18.0597 44.7273 18.0912 44.2234 18.847 43.6881C20.705 42.3339 25.0981 43.5463 28.5937 48.6165C30.3887 51.2303 30.4832 54.3795 28.0741 56.1431C23.8542 59.2135 18.9099 50.4273 11.5409 56.5367C8.3602 59.182 9.6986 63.3547 11.7141 65.6536C17.1307 71.8417 24.5785 74.5185 29.8533 70.3931C34.6401 66.6456 33.16 63.087 34.3882 62.221C35.5376 61.4022 37.1752 62.5674 37.9625 63.7168C39.3639 65.7166 40.5605 71.1174 38.7025 72.4715C37.4429 73.4005 36.813 77.8251 32.6719 81.242C25.3028 87.3199 13.1627 86.5169 5.25826 78.6282C-2.78789 70.582 -1.19755 56.6312 7.28948 49.6715L7.30523 49.6557Z"
    fill="white"
  />
  <path
    d="M66.5729 49.1353C68.5883 53.4025 70.1 51.4185 70.9975 53.4025C72.3359 56.3312 67.2185 58.6931 65.7698 59.4331C64.5574 60.0472 59.8336 62.5666 58.4637 60.0945C57.6922 58.6773 58.7787 58.1105 57.7867 55.4494C57.1726 53.7804 56.3066 52.0168 55.4405 50.4108C54.1179 47.9701 51.5828 43.3566 48.5281 45.0886C45.8985 46.5688 47.4416 49.0409 48.7013 51.1981C49.9925 53.434 50.638 54.5362 51.9449 56.7721C54.2596 60.7558 55.3775 59.0395 56.3538 60.7715C57.9441 63.5743 53.5983 66.1881 52.1654 67.0699C46.7488 70.4238 44.6389 69.9829 43.6626 68.5658C42.4187 66.7235 44.4499 66.5503 43.1272 63.1019C42.1667 60.6141 38.1358 54.4732 36.4667 51.9224C35.0968 49.8282 33.5695 47.7654 32.1524 45.7185C29.9164 42.4748 28.0427 45.4036 26.5783 43.2464C24.0747 39.5776 35.3645 31.0276 35.4118 30.9961C36.8131 30.1615 37.1596 30.5552 37.9626 31.9408C39.9623 35.6569 40.9701 37.5149 42.9855 41.2309C43.4737 42.1757 44.3239 43.7345 45.4576 43.0732C46.7645 42.3174 44.8908 37.6093 49.9767 34.9483C58.3378 30.5709 61.9121 39.7508 62.6049 41.1364C64.1952 44.3486 64.9983 45.9389 66.5886 49.1511L66.5729 49.1353Z"
    fill="white"
  />
  <path
    d="M89.9236 34.7751C92.8051 44.1281 93.8601 38.2392 94.6947 41.1207C95.5764 44.1596 93.2933 48.411 90.2858 49.4188C87.0264 50.5052 86.0029 47.8914 84.9637 48.2536C84.4598 48.4268 84.1449 49.3085 83.4993 50.269C82.838 51.2453 81.8775 52.4105 80.0195 53.1663C76.6499 54.5204 72.3355 53.7646 70.0838 48.7574C68.462 45.1516 69.4068 39.2154 77.2482 36.2394C78.6338 35.7198 79.2952 35.5939 78.6024 33.7201C77.9725 32.0038 76.6026 28.398 74.4769 29.2168C71.7057 30.2718 73.6267 35.9245 69.6744 37.5936C68.2573 38.1919 66.6827 37.4991 65.9584 35.8615C64.0532 31.5314 70.7452 25.3905 75.2642 23.753C77.9725 22.761 85.8297 21.5013 88.2861 29.4687C88.9474 31.5944 89.2623 32.6494 89.9236 34.7751ZM78.3977 43.9392C78.9173 45.2933 80.0667 46.5058 81.2949 46.0491C82.901 45.4508 82.2397 43.2621 81.6728 41.7033C81.2477 40.5538 80.8225 39.2312 79.5943 39.6878C78.1142 40.2389 77.7521 42.2859 78.3977 43.9549V43.9392Z"
    fill="white"
  />
  <path
    d="M97.7812 34.9014C96.2854 29.2644 95.687 28.0992 95.3721 27.8945C94.5848 27.3591 92.2702 28.7448 91.4041 25.7058C90.3649 22.0685 99.592 16.6677 103.229 15.8961C104.41 15.6442 104.694 16.0378 104.946 17.2345C105.024 17.6124 105.229 18.3682 105.717 18.2737C106.394 18.132 108.567 14.6207 112.614 13.9436C119.101 12.8729 123.431 19.7696 124.187 26.2254C125.053 33.626 121.904 41.9241 115.7 43.0105C113.7 43.3569 111.433 42.3964 111.055 42.4752C110.457 42.6011 110.614 43.7506 110.724 44.3489C111.575 48.4901 113.889 46.6636 114.393 49.3404C114.976 52.3951 111.401 53.513 109.843 53.8594C104.489 55.0561 99.592 53.639 98.8205 50.915C98.1434 48.5058 100.08 48.9467 100.269 46.6478C100.379 45.4039 100.143 43.8136 98.5528 37.8459C98.2379 36.6649 98.0804 36.0666 97.7655 34.8857L97.7812 34.9014ZM108.331 23.0762C106.63 23.4069 106.237 24.3517 108.299 34.2401C108.677 36.0351 109.512 36.539 111.055 36.2398C113.795 35.7044 113.496 32.0042 113.023 29.3746C112.551 26.745 111.307 22.4936 108.331 23.0762Z"
    fill="white"
  />
  <path
    d="M135.398 19.2815C135.02 20.3522 133.603 24.0682 132.422 24.147C131.256 24.2414 129.288 20.7773 128.769 19.7696C127.147 16.8409 125.588 12.8257 125.226 9.39306C124.801 5.29913 126.186 0.717075 130.658 0.386412C135.13 0.055748 137.177 4.40161 137.366 8.49555C137.523 11.9281 136.563 16.148 135.398 19.2815ZM133.666 40.7746C131.052 40.9636 128.627 38.4285 128.281 35.0589C127.934 31.6892 129.95 28.6818 132.752 28.4771C135.555 28.2724 137.98 30.9492 138.137 34.3346C138.295 37.7199 136.279 40.5857 133.666 40.7904V40.7746Z"
    fill="white"
  />
  <path
    d="M177.55 1.89834C182.683 2.6069 185.47 5.91354 186.808 6.14973C187.942 6.35442 188.32 6.03951 189.186 6.21271C191.343 6.63785 193.358 10.6531 192.02 16.668C191.343 19.7542 189.154 21.9901 186.336 21.439C181.423 20.4785 184.415 10.8735 175.424 9.67681C171.535 9.15719 169.488 12.9834 169.157 16.0224C168.275 24.1945 171.11 31.4691 177.408 32.4769C183.124 33.3901 184.714 29.8788 186.131 30.1779C187.454 30.4456 187.69 32.4296 187.391 33.7995C186.871 36.1929 183.816 40.7592 181.659 40.3498C180.195 40.0664 176.636 42.6487 171.598 41.9559C162.622 40.7277 155.631 31.2487 156.135 20.1006C156.655 8.73205 167.236 0.465461 177.534 1.89834H177.55Z"
    fill="white"
  />
  <path
    d="M216.93 44.5692C215.182 48.9623 217.654 48.6947 216.836 50.7101C215.607 53.6861 210.427 51.5919 208.915 51.0408C207.64 50.5842 202.648 48.8836 203.53 46.1911C204.034 44.6637 205.168 45.0574 206.427 42.5223C207.215 40.9319 207.908 39.0897 208.49 37.3576C209.372 34.7281 210.994 29.7366 207.719 28.6974C204.9 27.7999 204.16 30.6184 203.436 33.0117C202.696 35.4839 202.318 36.712 201.578 39.1841C200.255 43.593 202.239 43.2151 201.641 45.1203C200.68 48.1908 195.925 46.8366 194.335 46.4115C188.351 44.7897 187.296 42.9474 187.69 41.2626C188.178 39.0897 189.642 40.4438 191.233 37.1214C192.382 34.7123 194.114 27.5952 194.839 24.6192C195.437 22.1943 195.893 19.675 196.429 17.2344C197.279 13.3924 193.957 14.038 194.539 11.4871C195.531 7.157 209.089 9.47165 209.136 9.48739C210.663 9.92828 210.616 10.4479 210.144 11.991C208.805 15.9904 208.128 18.0059 206.79 22.0054C206.443 22.9974 205.876 24.6822 207.105 25.0601C208.522 25.501 210.647 20.9032 216.001 22.7769C224.787 25.8316 220.583 34.7281 220.048 36.1924C218.804 39.5463 218.174 41.2311 216.914 44.5692H216.93Z"
    fill="white"
  />
  <path
    d="M243.557 51.8751C238.691 60.3621 243.761 57.15 242.234 59.7323C240.612 62.4563 235.888 63.653 233.054 62.1099C229.984 60.4408 231.196 57.9058 230.204 57.4019C229.732 57.15 228.85 57.5121 227.716 57.7011C226.535 57.89 225.024 57.9845 223.197 57.1342C219.891 55.5911 217.481 51.9381 219.607 46.8679C221.134 43.2306 226.063 39.8295 233.668 43.5455C235.007 44.2068 235.558 44.6005 236.455 42.8212C237.274 41.1836 238.959 37.7195 236.896 36.7118C234.204 35.3891 231.385 40.6798 227.464 38.932C226.047 38.3021 225.496 36.6803 226.189 35.0427C228.047 30.6969 237.117 31.3739 241.447 33.5784C244.045 34.901 250.469 39.8295 246.312 47.0568C245.21 48.9778 244.659 49.9541 243.557 51.8751ZM228.818 49.6549C228.189 50.9618 228.094 52.6309 229.275 53.2135C230.834 53.9693 231.968 52.0168 232.723 50.5209C233.275 49.4345 233.952 48.2063 232.755 47.6237C231.322 46.9151 229.574 48.0488 228.803 49.6549H228.818Z"
    fill="white"
  />
  <path
    d="M248.989 57.7963C252.091 52.8521 252.516 51.6081 252.453 51.246C252.295 50.3012 249.634 49.5139 251.272 46.8056C253.224 43.562 263.711 46.8056 266.876 49.0101C267.899 49.7344 267.805 50.2225 267.096 51.2145C266.876 51.5294 266.467 52.1907 266.876 52.4899C267.459 52.9151 271.6 52.1592 275.001 54.8046C280.449 59.0245 278.481 67.0391 274.261 71.9833C269.411 77.6361 260.987 80.7695 255.728 76.7858C254.043 75.4947 253.13 73.1328 252.799 72.8966C252.28 72.5187 251.539 73.4319 251.177 73.9201C248.737 77.3527 251.713 77.888 250.107 80.0767C248.264 82.5803 244.895 80.6278 243.525 79.6831C238.833 76.4552 236.439 71.8731 237.904 69.4482C239.195 67.3068 240.234 69.0388 242.06 67.6375C243.052 66.8817 244.06 65.622 247.335 60.3943C247.981 59.3551 248.312 58.8355 248.957 57.812L248.989 57.7963ZM265.207 57.7175C263.743 56.6468 262.766 56.9932 256.925 65.2441C255.87 66.7399 256.09 67.7162 257.413 68.6767C259.759 70.393 262.294 67.6689 263.9 65.5432C265.506 63.4176 267.758 59.5913 265.207 57.7175Z"
    fill="white"
  />
  <path
    d="M287.55 76.0772C286.48 76.5023 282.701 77.8722 281.772 77.0062C280.858 76.1401 281.992 72.2824 282.354 71.1959C283.346 67.968 285.188 64.0316 287.472 61.4492C290.196 58.363 294.589 56.3476 298.1 59.6384C301.596 62.9293 299.879 67.4799 296.966 70.3929C294.526 72.8335 290.715 74.8962 287.534 76.0772H287.55ZM270.371 89.162C268.325 87.2252 268.45 83.6352 270.702 81.1001C272.954 78.565 276.638 78.1084 278.827 80.1711C281.016 82.2338 280.811 85.9498 278.418 88.3589C276.024 90.7681 272.434 91.083 270.371 89.162Z"
    fill="white"
  />
</svg>
