;<svg width="316" height="69" viewBox="0 0 316 69" fill="none" xmlns="http://www.w3.org/2000/svg">
  <path
    d="M18.8176 1.39307C23.2992 1.39307 26.178 4.54338 27.3607 4.54338C28.3644 4.54338 28.6367 4.09222 29.4148 4.09222C31.3366 4.09222 33.803 8.14485 33.803 15.2778C33.803 18.9415 32.2469 22.0296 29.5548 22.0296C24.8476 22.0296 26.038 10.6495 17.8995 10.6495C14.3826 10.6495 12.9199 15.2778 12.9199 18.8092C12.9199 28.3224 16.5301 34.7942 22.9257 34.7942C28.7301 34.7942 29.5937 30.3604 31.0176 30.3604C32.3403 30.3604 32.9861 32.5462 32.9861 34.1486C32.9861 36.9799 30.8853 42.8916 28.5978 42.8916C27.0417 42.8916 23.8439 48.2433 18.4519 48.2433C8.85841 48.2511 1 37.5789 1 24.6587C1 11.7385 9.81542 1.39307 18.8176 1.39307Z"
    stroke="#231815"
    stroke-width="1.5"
  />
  <path
    d="M65.8901 36.7469C65.8901 38.676 66.0769 39.6406 67.3062 40.6051C68.2165 41.313 68.8623 41.7019 68.8623 43.3043C68.8623 44.9067 71.8812 48.057 62.879 48.057C60.8716 48.057 55.0206 47.9947 55.0206 43.6854C54.8417 38.7383 58.2184 44.1988 58.2184 31.1542C58.2184 27.6849 57.666 27.8094 55.3863 27.8094C48.9906 27.8094 49.582 28.0661 49.582 33.8533C49.582 42.6586 52.4141 39.1272 52.4141 43.3043C52.4141 47.8003 45.7461 48.057 43.552 48.057C41.3579 48.057 35.0945 47.8003 35.0945 43.4287C35.0945 42.083 35.7792 41.243 36.5572 40.7296C38.1989 39.6406 38.7981 39.8273 38.7981 26.3937C38.7981 9.29644 38.6191 10.7121 36.9229 9.42867C36.2382 8.91529 35.4135 8.33967 35.4135 7.04843C35.4135 2.10127 43.0463 1.58789 45.6061 1.58789C47.5279 1.58789 52.8265 1.90681 52.8265 5.76497C52.8265 7.75628 52.0484 8.46413 50.998 9.36644C49.8543 10.2688 49.582 11.0388 49.582 16.7561C49.582 20.3575 50.7724 19.9064 52.9665 19.9064H55.3007C58.3196 19.9064 58.2262 19.2608 58.2262 17.2695C58.2262 10.261 57.4482 9.80982 56.8568 9.36644C55.9854 8.6586 55.1684 8.08298 55.1684 6.41059C55.1684 5.18936 54.9817 1.58789 64.0772 1.58789C66.2247 1.58789 69.1891 1.65012 69.1891 6.1539C69.1891 7.5696 68.6834 8.53414 67.773 9.17198C66.4036 10.0043 65.8979 9.8176 65.8979 20.0308V36.7392L65.8901 36.7469Z"
    stroke="#231815"
    stroke-width="1.5"
  />
  <path
    d="M79.9264 24.1456C81.3425 19.7118 81.6615 14.8658 81.6615 9.79418C81.6615 5.3604 83.1242 2.01562 87.1935 2.01562C91.2628 2.01562 95.2387 6.92389 97.0204 11.1632C97.7985 13.0301 104.7 32.6942 106.342 37.9681C107.851 42.853 110.317 39.8972 110.317 43.5609C110.317 48.2513 103.828 48.0569 101.541 48.0569C95.0052 48.0569 91.076 47.9947 91.076 44.0043C91.076 40.9162 93.8615 42.0752 93.8615 39.8272C93.8615 36.9335 92.7177 36.6769 85.3651 36.6769C82.992 36.6769 81.5759 36.8091 81.5759 39.9516C81.5759 42.4563 84.5014 40.7839 84.5014 44.1287C84.5014 47.9869 79.5685 48.0491 77.7401 48.0491C71.2044 48.0491 70.613 46.3145 70.613 44.2609C70.613 41.2429 73.0795 42.1374 74.41 39.8272C75.4137 38.0926 76.3785 35.0045 77.0632 32.9509L79.942 24.1456H79.9264ZM89.5199 28.7738C89.979 28.7738 91.3484 28.9061 91.3484 27.9415C91.3484 26.977 90.0256 23.6322 89.66 22.7377C89.2476 21.7109 88.4695 19.3307 87.4658 19.3307C86.3688 19.3307 85.5907 23.1888 85.4117 23.8967C85.225 24.6045 84.4547 27.1092 84.4547 27.8793C84.4547 28.9761 85.5985 28.7816 86.0964 28.7816H89.5199V28.7738Z"
    stroke="#231815"
    stroke-width="1.5"
  />
  <path
    d="M116.76 13.691C116.76 8.86826 112.512 10.9918 112.512 6.93917C112.512 4.36447 114.519 3.78886 115.943 3.78886C117.087 3.78886 118.184 3.9211 119.327 3.9211C125.957 3.9211 128.415 1.39307 130.337 1.39307C136.554 1.39307 142.537 6.47246 142.537 16.1101C142.537 25.7477 136.779 30.8271 130.43 30.8271C129.061 30.8271 127.692 30.5082 126.455 30.5082C125.902 30.5082 125.723 30.8271 125.723 31.535V35.2609C125.863 43.2961 129.193 39.9514 129.193 43.6773C129.193 47.8544 122.611 48.0488 120.557 48.0488C118.635 48.0488 111.874 47.9866 111.874 43.8095C111.874 40.2781 115.212 42.456 115.212 37.19L116.768 13.6832L116.76 13.691ZM127.45 8.97716C125.669 8.97716 125.715 9.74723 125.715 11.0307V20.6761C125.715 22.0218 125.303 23.5075 127.769 23.5075C130.788 23.5075 131.971 20.2949 131.971 16.3746C131.971 12.4542 130.508 8.98493 127.45 8.98493V8.97716Z"
    stroke="#231815"
    stroke-width="1.5"
  />
  <path
    d="M33.8729 32.5929C32.4569 32.5929 31.5854 36.8323 25.7811 36.8323C19.3854 36.8323 15.7752 30.6405 15.7752 21.5474C15.7752 18.1637 17.238 13.7377 20.7548 13.7377C28.8855 13.7377 27.7029 24.6199 32.4102 24.6199C35.1023 24.6199 36.6584 21.6719 36.6584 18.1637C36.6584 11.3419 34.1919 7.46822 32.2701 7.46822C31.4921 7.46822 31.2197 7.89604 30.216 7.89604C29.0256 7.89604 26.1468 4.88574 21.6729 4.88574C12.6708 4.88574 3.85535 14.5389 3.85535 27.1402C3.85535 32.7174 5.45815 37.8512 8.10356 41.8105C8.10356 41.8416 8.10356 41.865 8.10356 41.8961C8.70266 45.9643 9.49628 49.5891 8.94386 53.7584C8.82715 54.6063 8.6871 55.493 8.97498 56.2942C9.26287 57.0954 10.1732 57.7566 10.9668 57.4376C12.0872 56.1853 11.9161 54.2873 11.9627 52.6072C12.0094 50.927 12.663 48.8968 14.3203 48.5934C15.713 48.3445 16.9579 49.5113 17.7359 50.6936C19.8134 53.8673 20.4592 57.9433 19.4632 61.6069C19.0197 63.2482 18.2572 64.9673 18.7941 66.5774C19.0509 67.3553 19.7511 68.0787 20.5603 67.9931C21.1983 67.9231 21.6963 67.3631 21.8908 66.7486C22.0853 66.1341 22.0308 65.4807 21.9842 64.8428C21.743 61.8092 21.5018 58.7756 21.2528 55.7497C21.1983 55.073 21.1516 54.3729 21.4006 53.7428C21.6496 53.1128 22.2954 52.5838 22.9645 52.7005C24.1316 52.9105 24.1938 54.544 23.9604 55.703C23.7426 56.7842 23.5247 57.8655 23.3069 58.9467C23.1435 59.7556 23.2213 60.9224 24.046 61.008C24.4817 61.0547 24.863 60.7124 25.1275 60.3546C27.345 57.3287 25.0575 52.8716 26.3958 49.3713C26.6992 48.5779 27.1738 47.8778 27.7262 47.2322C29.4535 45.9254 30.6829 44.5797 31.4843 44.5797C33.7718 44.5797 35.8725 38.9247 35.8725 36.2177C35.8725 34.6776 35.2345 32.5929 33.904 32.5929H33.8729Z"
    fill="#F7C544"
    stroke="#231815"
    stroke-width="1.5"
    stroke-miterlimit="10"
  />
  <path
    d="M71.7099 44.9685C71.7099 43.4283 71.0719 43.0627 70.1538 42.386C68.9167 41.4681 68.7377 40.5425 68.7377 38.699V22.7141C68.7377 12.9442 69.2435 13.1231 70.6129 12.3297C71.5232 11.7152 72.0289 10.7895 72.0289 9.44385C72.0289 5.14231 69.0645 5.08008 66.9171 5.08008C57.8216 5.08008 58.0083 8.5182 58.0083 9.69276C58.0083 11.2874 58.833 11.8474 59.6967 12.5164C60.288 12.9442 61.0661 13.3798 61.0661 20.0771C61.0661 21.9829 61.1594 22.5974 58.1406 22.5974H55.8064C53.6122 22.5974 52.4218 23.0252 52.4218 19.5871C52.4218 14.1188 52.6941 13.3798 53.8379 12.5164C54.8883 11.653 55.6663 10.9762 55.6663 9.07825C55.6663 5.39122 50.3677 5.08008 48.4459 5.08008C45.8861 5.08008 38.2533 5.57013 38.2533 10.3073C38.2533 11.5363 39.0781 12.0886 39.7628 12.5786C41.4512 13.8076 41.6379 12.4541 41.6379 28.8047C41.6379 41.6548 41.0466 41.4681 39.3971 42.5105C38.619 43.0005 37.9343 43.8017 37.9343 45.093C37.9343 49.27 44.2833 49.5189 46.3918 49.5189C48.5004 49.5189 55.254 49.27 55.254 44.9685C55.254 40.9703 52.4218 44.354 52.4218 35.9298C52.4218 30.3993 51.8305 30.1504 58.2261 30.1504C60.5136 30.1504 61.0583 30.0259 61.0583 33.3473C61.0583 45.8241 57.6737 40.6047 57.8605 45.3341C57.8605 47.4576 59.4244 48.5 61.2061 49.0133C61.6574 49.3789 62.1087 49.7134 62.2487 49.9079C62.9412 50.8491 63.3224 52.0236 63.4547 53.1826C63.6726 55.0417 63.338 56.9086 63.1201 58.7676C62.9879 59.88 62.9178 61.0701 63.4547 62.0502C63.9916 63.0303 65.361 63.637 66.2713 62.9914C66.8782 62.5558 67.0883 61.7235 66.9949 60.9845C66.9015 60.2456 66.5747 59.5533 66.3024 58.8532C65.5866 56.9864 65.2909 54.9639 65.4388 52.9726C65.5166 51.9925 65.8978 50.8102 66.8626 50.6546C67.6018 50.5302 68.3098 51.1524 68.5277 51.8681C68.7455 52.5837 68.6055 53.3616 68.411 54.085C68.232 54.7539 68.0064 55.4462 68.1231 56.1307C68.2398 56.8152 68.8233 57.4842 69.5158 57.4064C71.3287 57.2119 70.4884 54.4039 70.3483 53.3616C70.1227 51.6969 70.2861 49.8845 71.3754 48.5777C72.9704 47.551 71.6866 45.9097 71.6866 44.9529L71.7099 44.9685Z"
    fill="#F7C544"
    stroke="#231815"
    stroke-width="1.5"
    stroke-miterlimit="10"
  />
  <path
    d="M113.111 45.9956C113.111 45.9956 113.095 45.9956 113.079 45.9956C113.126 45.7544 113.149 45.49 113.149 45.2177C113.149 41.7174 110.683 44.541 109.174 39.8661C107.532 34.8256 100.63 16.017 99.8524 14.2357C98.0706 10.1753 94.0014 5.48486 90.0255 5.48486C86.0496 5.48486 84.4935 8.68185 84.4935 12.9212C84.4935 17.775 84.1745 22.411 82.7584 26.6503L79.8796 35.0745C79.1949 37.0425 78.2379 39.9905 77.2264 41.6551C75.9037 43.872 73.4294 43.0086 73.4294 45.8944C73.4294 47.8624 74.0208 49.5193 80.5565 49.5193C82.3849 49.5193 87.3178 49.457 87.3178 45.77C87.3178 42.573 84.3923 44.1754 84.3923 41.7718C84.3923 38.7615 85.8084 38.6371 88.1815 38.6371C95.5419 38.6371 96.6779 38.886 96.6779 41.6474C96.6779 43.802 93.8924 42.6897 93.8924 45.6455C93.8924 49.3559 97.6271 49.5115 103.859 49.5193C104.023 50.6938 103.789 52.0706 103.735 53.1285C103.727 53.2763 103.712 53.4319 103.688 53.5874C103.447 55.112 102.98 56.8466 104.046 58.1768C104.28 58.4724 104.606 58.7368 105.003 58.7835C105.563 58.8535 106.1 58.4646 106.326 57.9901C106.559 57.5156 106.559 56.9789 106.551 56.4577C106.544 54.8787 106.528 53.2918 106.52 51.7128C106.52 51.2694 106.544 50.7638 106.902 50.4682C107.127 50.2816 107.446 50.2193 107.75 50.2271C109.065 50.2582 110.037 51.4794 110.185 52.6773C110.341 53.8752 109.897 55.0654 109.563 56.2321C109.065 57.9901 108.792 59.7947 108.761 61.6149C108.738 62.735 108.847 63.9407 109.633 64.7963C109.804 64.983 110.014 65.1541 110.278 65.193C110.971 65.2942 111.36 64.5007 111.484 63.8707C112.371 59.2891 110.551 54.8398 111.329 50.336C111.383 50.0249 113.445 46.0267 113.079 45.9956H113.111ZM92.3674 31.0763H88.944C88.4382 31.0763 87.3023 31.263 87.3023 30.2129C87.3023 29.4739 88.0803 27.0781 88.2593 26.4014C88.4382 25.7247 89.2163 22.0376 90.3134 22.0376C91.3171 22.0376 92.0951 24.309 92.5075 25.2968C92.8732 26.1603 94.1959 29.3572 94.1959 30.2751C94.1959 31.193 92.8265 31.0763 92.3674 31.0763Z"
    fill="#F7C544"
  />
  <path
    d="M113.079 45.9956C113.095 45.9956 113.111 45.9956 113.111 45.9956H113.079ZM113.079 45.9956C113.126 45.7544 113.149 45.49 113.149 45.2177C113.149 41.7174 110.683 44.541 109.174 39.8661C107.532 34.8256 100.63 16.017 99.8524 14.2357C98.0706 10.1753 94.0014 5.48486 90.0255 5.48486C86.0496 5.48486 84.4935 8.68185 84.4935 12.9212C84.4935 17.775 84.1745 22.411 82.7584 26.6503L79.8796 35.0745C79.1949 37.0425 78.2379 39.9905 77.2264 41.6551C75.9037 43.872 73.4294 43.0086 73.4294 45.8944C73.4294 47.8624 74.0208 49.5193 80.5565 49.5193C82.3849 49.5193 87.3178 49.457 87.3178 45.77C87.3178 42.573 84.3923 44.1754 84.3923 41.7718C84.3923 38.7615 85.8084 38.6371 88.1815 38.6371C95.5419 38.6371 96.6779 38.886 96.6779 41.6474C96.6779 43.802 93.8924 42.6897 93.8924 45.6455C93.8924 49.3559 97.6271 49.5115 103.859 49.5193C104.023 50.6938 103.789 52.0706 103.735 53.1285C103.727 53.2763 103.712 53.4319 103.688 53.5874C103.447 55.112 102.98 56.8466 104.046 58.1768C104.28 58.4724 104.606 58.7368 105.003 58.7835C105.563 58.8535 106.1 58.4646 106.326 57.9901C106.559 57.5156 106.559 56.9789 106.551 56.4577C106.544 54.8787 106.528 53.2918 106.52 51.7128C106.52 51.2694 106.544 50.7638 106.902 50.4682C107.127 50.2816 107.446 50.2193 107.75 50.2271C109.065 50.2582 110.037 51.4794 110.185 52.6773C110.341 53.8752 109.897 55.0654 109.563 56.2321C109.065 57.9901 108.792 59.7947 108.761 61.6149C108.738 62.735 108.847 63.9407 109.633 64.7963C109.804 64.983 110.014 65.1541 110.278 65.193C110.971 65.2942 111.36 64.5007 111.484 63.8707C112.371 59.2891 110.551 54.8398 111.329 50.336C111.383 50.0249 113.445 46.0267 113.079 45.9956ZM92.3674 31.0763H88.944C88.4382 31.0763 87.3023 31.263 87.3023 30.2129C87.3023 29.4739 88.0803 27.0781 88.2593 26.4014C88.4382 25.7247 89.2163 22.0376 90.3134 22.0376C91.3171 22.0376 92.0951 24.309 92.5075 25.2968C92.8732 26.1603 94.1959 29.3572 94.1959 30.2751C94.1959 31.193 92.8265 31.0763 92.3674 31.0763Z"
    stroke="#231815"
    stroke-width="1.5"
    stroke-miterlimit="10"
  />
  <path
    d="M143.074 27.6613C144.506 25.4211 145.377 22.5197 145.377 18.9649C145.377 9.74734 139.394 4.88574 133.177 4.88574C131.255 4.88574 128.789 7.30487 122.167 7.30487C121.024 7.30487 119.927 7.18042 118.783 7.18042C117.367 7.18042 115.352 7.73269 115.352 10.1907C115.352 14.0644 119.6 12.0342 119.6 16.6469L118.044 39.1269C118.044 44.1674 114.706 42.075 114.706 45.4587C114.706 47.2789 116.122 48.2823 117.834 48.8346C118.23 49.2313 118.822 49.6902 119.016 49.9858C119.748 51.1137 120.036 52.3894 120.074 53.6184C120.144 55.6408 119.615 57.6477 119.6 59.6701C119.6 60.6735 120.098 61.9648 121.522 62.027C122.315 62.0659 123.047 61.6381 123.366 61.1247C123.685 60.6113 123.685 60.0279 123.638 59.4678C123.334 56.2086 121.553 52.8794 122.969 49.768C123.008 49.6824 123.062 49.5891 123.124 49.5113C123.218 49.5113 123.311 49.5113 123.389 49.5113C123.615 49.5113 123.902 49.5113 124.229 49.4957C124.408 49.6902 124.517 49.9625 124.54 50.188C124.642 51.1526 124.719 52.1327 124.852 53.0972C124.922 53.595 125.163 54.4974 125.692 54.7385C126.486 55.1119 126.859 54.1162 126.735 53.3461C126.602 52.4905 126.291 51.4715 127.201 50.8959C127.45 50.7403 127.762 50.6392 127.995 50.4758C128.555 50.0791 128.477 49.5035 128.446 48.9201C130.368 48.3756 132.033 47.3333 132.033 45.3187C132.033 41.7561 128.695 44.9531 128.563 37.2679V33.7053C128.563 33.0285 128.75 32.7252 129.294 32.7252C130.524 32.7252 131.901 33.0285 133.27 33.0285C133.589 33.0285 133.901 33.0052 134.212 32.9819C134.196 33.9231 134.111 34.8721 134.126 35.8133C134.15 36.9412 134.282 38.1857 134.943 39.1425C135.534 39.9981 136.398 40.0837 136.756 38.8858C136.951 38.248 136.795 37.5634 136.616 36.9334C136.351 36.0233 135.721 34.242 135.737 32.7719C136.756 32.5541 137.736 32.204 138.662 31.7217C138.802 32.1651 138.872 32.6474 138.911 33.0052C138.966 33.5886 139.02 34.1642 139.082 34.7476C139.121 35.1754 139.222 35.6888 139.612 35.8599C139.899 35.9844 140.242 35.8677 140.475 35.6577C140.825 35.3388 141.137 34.8176 141.105 34.3431C141.02 32.9819 140.203 31.5895 140.747 30.3372C141.386 29.8004 141.977 29.1859 142.514 28.4859C142.778 28.2136 142.957 27.9414 143.082 27.6536L143.074 27.6613ZM128.563 23.3287V14.1111C128.563 12.8821 128.516 12.1431 130.298 12.1431C133.356 12.1431 134.819 15.3401 134.819 19.2138C134.819 23.0876 133.628 26.0356 130.617 26.0356C128.151 26.0356 128.563 24.6199 128.563 23.3287Z"
    fill="#F7C544"
    stroke="#231815"
    stroke-width="1.5"
    stroke-miterlimit="10"
  />
  <path
    d="M188.597 1.39307C193.079 1.39307 195.957 4.54338 197.14 4.54338C198.144 4.54338 198.416 4.09222 199.194 4.09222C201.116 4.09222 203.582 8.14485 203.582 15.2778C203.582 18.9415 202.026 22.0296 199.334 22.0296C194.627 22.0296 195.817 10.6495 187.679 10.6495C184.162 10.6495 182.699 15.2778 182.699 18.8092C182.699 28.3224 186.31 34.7942 192.705 34.7942C198.509 34.7942 199.373 30.3604 200.797 30.3604C202.12 30.3604 202.765 32.5462 202.765 34.1486C202.765 36.9799 200.665 42.8916 198.377 42.8916C196.821 42.8916 193.623 48.2433 188.231 48.2433C178.638 48.2511 170.779 37.5789 170.779 24.6587C170.779 11.7385 179.595 1.39307 188.597 1.39307Z"
    stroke="#231815"
    stroke-width="1.5"
  />
  <path
    d="M235.669 36.7469C235.669 38.676 235.856 39.6406 237.085 40.6051C237.996 41.313 238.642 41.7019 238.642 43.3043C238.642 44.9067 241.66 48.057 232.658 48.057C230.651 48.057 224.8 47.9947 224.8 43.6854C224.621 38.7383 227.998 44.1988 227.998 31.1542C227.998 27.6849 227.445 27.8094 225.166 27.8094C218.77 27.8094 219.361 28.0661 219.361 33.8533C219.361 42.6586 222.193 39.1272 222.193 43.3043C222.193 47.8003 215.525 48.057 213.331 48.057C211.137 48.057 204.874 47.8003 204.874 43.4287C204.874 42.083 205.558 41.243 206.337 40.7296C207.978 39.6406 208.577 39.8273 208.577 26.3937C208.577 9.29644 208.398 10.7121 206.702 9.42867C206.018 8.91529 205.193 8.33967 205.193 7.04843C205.193 2.10127 212.826 1.58789 215.385 1.58789C217.307 1.58789 222.606 1.90681 222.606 5.76497C222.606 7.75628 221.828 8.46413 220.777 9.36644C219.634 10.2688 219.361 11.0388 219.361 16.7561C219.361 20.3575 220.552 19.9064 222.746 19.9064H225.08C228.099 19.9064 228.006 19.2608 228.006 17.2695C228.006 10.261 227.227 9.80982 226.636 9.36644C225.765 8.6586 224.948 8.08298 224.948 6.41059C224.948 5.18936 224.761 1.58789 233.857 1.58789C236.004 1.58789 238.968 1.65012 238.968 6.1539C238.968 7.5696 238.463 8.53414 237.552 9.17198C236.183 10.0043 235.677 9.8176 235.677 20.0308V36.7392L235.669 36.7469Z"
    stroke="#231815"
    stroke-width="1.5"
  />
  <path
    d="M249.706 24.1456C251.122 19.7118 251.441 14.8658 251.441 9.79418C251.441 5.3604 252.904 2.01562 256.973 2.01562C261.042 2.01562 265.018 6.92389 266.8 11.1632C267.578 13.0301 274.479 32.6942 276.121 37.9681C277.63 42.853 280.097 39.8972 280.097 43.5609C280.097 48.2513 273.608 48.0569 271.32 48.0569C264.785 48.0569 260.855 47.9947 260.855 44.0043C260.855 40.9162 263.641 42.0752 263.641 39.8272C263.641 36.9335 262.497 36.6769 255.144 36.6769C252.771 36.6769 251.355 36.8091 251.355 39.9516C251.355 42.4563 254.281 40.7839 254.281 44.1287C254.281 47.9869 249.348 48.0491 247.519 48.0491C240.984 48.0491 240.392 46.3145 240.392 44.2609C240.392 41.2429 242.859 42.1374 244.189 39.8272C245.193 38.0926 246.158 35.0045 246.843 32.9509L249.721 24.1456H249.706ZM259.299 28.7738C259.758 28.7738 261.128 28.9061 261.128 27.9415C261.128 26.977 259.805 23.6322 259.439 22.7377C259.027 21.7109 258.249 19.3307 257.245 19.3307C256.148 19.3307 255.37 23.1888 255.191 23.8967C255.004 24.6045 254.234 27.1092 254.234 27.8793C254.234 28.9761 255.378 28.7816 255.876 28.7816H259.299V28.7738Z"
    stroke="#231815"
    stroke-width="1.5"
  />
  <path
    d="M286.539 13.691C286.539 8.86826 282.291 10.9918 282.291 6.93917C282.291 4.36447 284.298 3.78886 285.722 3.78886C286.866 3.78886 287.963 3.9211 289.107 3.9211C295.736 3.9211 298.195 1.39307 300.116 1.39307C306.333 1.39307 312.316 6.47246 312.316 16.1101C312.316 25.7477 306.559 30.8271 300.21 30.8271C298.84 30.8271 297.471 30.5082 296.234 30.5082C295.681 30.5082 295.502 30.8271 295.502 31.535V35.2609C295.642 43.2961 298.973 39.9514 298.973 43.6773C298.973 47.8544 292.39 48.0488 290.336 48.0488C288.414 48.0488 281.653 47.9866 281.653 43.8095C281.653 40.2781 284.991 42.456 284.991 37.19L286.547 13.6832L286.539 13.691ZM297.23 8.97716C295.448 8.97716 295.495 9.74723 295.495 11.0307V20.6761C295.495 22.0218 295.082 23.5075 297.549 23.5075C300.568 23.5075 301.75 20.2949 301.75 16.3746C301.75 12.4542 300.288 8.98493 297.23 8.98493V8.97716Z"
    stroke="#231815"
    stroke-width="1.5"
  />
  <path
    d="M203.652 32.5929C202.236 32.5929 201.365 36.8323 195.561 36.8323C189.165 36.8323 185.555 30.6405 185.555 21.5474C185.555 18.1637 187.017 13.7377 190.534 13.7377C198.665 13.7377 197.482 24.6199 202.19 24.6199C204.882 24.6199 206.438 21.6719 206.438 18.1637C206.438 11.3419 203.971 7.46822 202.05 7.46822C201.271 7.46822 200.999 7.89604 199.995 7.89604C198.805 7.89604 195.926 4.88574 191.452 4.88574C182.45 4.88574 173.635 14.5389 173.635 27.1402C173.635 32.7174 175.238 37.8512 177.883 41.8105C177.883 41.8416 177.883 41.865 177.883 41.8961C178.482 45.9643 179.276 49.5891 178.723 53.7584C178.607 54.6063 178.467 55.493 178.754 56.2942C179.042 57.0954 179.953 57.7566 180.746 57.4376C181.867 56.1853 181.695 54.2873 181.742 52.6072C181.789 50.927 182.442 48.8968 184.1 48.5934C185.492 48.3445 186.737 49.5113 187.515 50.6936C189.593 53.8673 190.239 57.9433 189.243 61.6069C188.799 63.2482 188.037 64.9673 188.574 66.5774C188.83 67.3553 189.531 68.0787 190.34 67.9931C190.978 67.9231 191.476 67.3631 191.67 66.7486C191.865 66.1341 191.81 65.4807 191.764 64.8428C191.522 61.8092 191.281 58.7756 191.032 55.7497C190.978 55.073 190.931 54.3729 191.18 53.7428C191.429 53.1128 192.075 52.5838 192.744 52.7005C193.911 52.9105 193.973 54.544 193.74 55.703C193.522 56.7842 193.304 57.8655 193.086 58.9467C192.923 59.7556 193.001 60.9224 193.825 61.008C194.261 61.0547 194.642 60.7124 194.907 60.3546C197.124 57.3287 194.837 52.8716 196.175 49.3713C196.479 48.5779 196.953 47.8778 197.506 47.2322C199.233 45.9254 200.462 44.5797 201.264 44.5797C203.551 44.5797 205.652 38.9247 205.652 36.2177C205.652 34.6776 205.014 32.5929 203.683 32.5929H203.652Z"
    fill="#F7C544"
    stroke="#231815"
    stroke-width="1.5"
    stroke-miterlimit="10"
  />
  <path
    d="M241.489 44.9685C241.489 43.4283 240.851 43.0628 239.933 42.386C238.696 41.4681 238.517 40.5425 238.517 38.699V22.7141C238.517 12.9442 239.023 13.1231 240.392 12.3297C241.302 11.7152 241.808 10.7895 241.808 9.44385C241.808 5.14231 238.844 5.08008 236.696 5.08008C227.601 5.08008 227.788 8.5182 227.788 9.69276C227.788 11.2874 228.612 11.8474 229.476 12.5164C230.067 12.9442 230.845 13.3798 230.845 20.0771C230.845 21.9829 230.939 22.5974 227.92 22.5974H225.586C223.392 22.5974 222.201 23.0252 222.201 19.5871C222.201 14.1188 222.473 13.3798 223.617 12.5164C224.668 11.653 225.446 10.9762 225.446 9.07825C225.446 5.39122 220.147 5.08008 218.225 5.08008C215.665 5.08008 208.033 5.57013 208.033 10.3073C208.033 11.5363 208.857 12.0886 209.542 12.5786C211.23 13.8076 211.417 12.4541 211.417 28.8047C211.417 41.6548 210.826 41.4682 209.176 42.5105C208.398 43.0005 207.714 43.8017 207.714 45.093C207.714 49.27 214.063 49.5189 216.171 49.5189C218.28 49.5189 225.033 49.27 225.033 44.9685C225.033 40.9703 222.201 44.354 222.201 35.9298C222.201 30.3993 221.61 30.1504 228.005 30.1504C230.293 30.1504 230.838 30.0259 230.838 33.3473C230.838 45.8241 227.453 40.6047 227.64 45.3341C227.64 47.4576 229.204 48.5 230.985 49.0133C231.437 49.3789 231.888 49.7134 232.028 49.9079C232.72 50.8491 233.102 52.0236 233.234 53.1827C233.452 55.0417 233.117 56.9086 232.899 58.7677C232.767 59.88 232.697 61.0701 233.234 62.0502C233.771 63.0303 235.14 63.637 236.051 62.9914C236.657 62.5558 236.868 61.7235 236.774 60.9845C236.681 60.2456 236.354 59.5533 236.082 58.8532C235.366 56.9864 235.07 54.9639 235.218 52.9726C235.296 51.9925 235.677 50.8102 236.642 50.6546C237.381 50.5302 238.089 51.1524 238.307 51.8681C238.525 52.5837 238.385 53.3616 238.19 54.085C238.011 54.7539 237.786 55.4462 237.902 56.1307C238.019 56.8152 238.603 57.4842 239.295 57.4064C241.108 57.2119 240.268 54.4039 240.128 53.3616C239.902 51.6969 240.065 49.8845 241.155 48.5777C242.75 47.551 241.466 45.9097 241.466 44.9529L241.489 44.9685Z"
    fill="#F7C544"
    stroke="#231815"
    stroke-width="1.5"
    stroke-miterlimit="10"
  />
  <path
    d="M282.89 45.9956C282.89 45.9956 282.874 45.9956 282.859 45.9956C282.906 45.7544 282.929 45.49 282.929 45.2177C282.929 41.7174 280.462 44.541 278.953 39.8661C277.311 34.8256 270.41 16.017 269.632 14.2357C267.85 10.1753 263.781 5.48486 259.805 5.48486C255.829 5.48486 254.273 8.68185 254.273 12.9212C254.273 17.775 253.954 22.411 252.538 26.6503L249.659 35.0745C248.974 37.0425 248.017 39.9905 247.006 41.6551C245.683 43.872 243.209 43.0086 243.209 45.8944C243.209 47.8624 243.8 49.5193 250.336 49.5193C252.164 49.5193 257.097 49.457 257.097 45.77C257.097 42.573 254.172 44.1754 254.172 41.7718C254.172 38.7615 255.588 38.6371 257.961 38.6371C265.321 38.6371 266.457 38.886 266.457 41.6474C266.457 43.802 263.672 42.6897 263.672 45.6455C263.672 49.3559 267.407 49.5115 273.639 49.5193C273.802 50.6938 273.569 52.0706 273.514 53.1285C273.507 53.2763 273.491 53.4319 273.468 53.5874C273.226 55.112 272.76 56.8466 273.826 58.1768C274.059 58.4724 274.386 58.7368 274.783 58.7835C275.343 58.8535 275.88 58.4646 276.105 57.9901C276.339 57.5156 276.339 56.9789 276.331 56.4577C276.323 54.8787 276.308 53.2918 276.3 51.7128C276.3 51.2694 276.323 50.7638 276.681 50.4682C276.907 50.2816 277.226 50.2193 277.529 50.2271C278.844 50.2582 279.817 51.4794 279.964 52.6773C280.12 53.8752 279.677 55.0654 279.342 56.2321C278.844 57.9901 278.572 59.7947 278.541 61.6149C278.517 62.735 278.626 63.9407 279.412 64.7963C279.583 64.983 279.793 65.1541 280.058 65.193C280.75 65.2942 281.139 64.5007 281.264 63.8707C282.151 59.2891 280.33 54.8398 281.108 50.336C281.163 50.0249 283.225 46.0267 282.859 45.9956H282.89ZM262.147 31.0763H258.723C258.218 31.0763 257.082 31.263 257.082 30.2129C257.082 29.4739 257.86 27.0781 258.039 26.4014C258.218 25.7247 258.996 22.0376 260.093 22.0376C261.096 22.0376 261.875 24.309 262.287 25.2968C262.653 26.1603 263.975 29.3572 263.975 30.2751C263.975 31.193 262.606 31.0763 262.147 31.0763Z"
    fill="#F7C544"
  />
  <path
    d="M282.859 45.9956C282.874 45.9956 282.89 45.9956 282.89 45.9956H282.859ZM282.859 45.9956C282.906 45.7544 282.929 45.49 282.929 45.2177C282.929 41.7174 280.462 44.541 278.953 39.8661C277.311 34.8256 270.41 16.017 269.632 14.2357C267.85 10.1753 263.781 5.48486 259.805 5.48486C255.829 5.48486 254.273 8.68185 254.273 12.9212C254.273 17.775 253.954 22.411 252.538 26.6503L249.659 35.0745C248.974 37.0425 248.017 39.9905 247.006 41.6551C245.683 43.872 243.209 43.0086 243.209 45.8944C243.209 47.8624 243.8 49.5193 250.336 49.5193C252.164 49.5193 257.097 49.457 257.097 45.77C257.097 42.573 254.172 44.1754 254.172 41.7718C254.172 38.7615 255.588 38.6371 257.961 38.6371C265.321 38.6371 266.457 38.886 266.457 41.6474C266.457 43.802 263.672 42.6897 263.672 45.6455C263.672 49.3559 267.407 49.5115 273.639 49.5193C273.802 50.6938 273.569 52.0706 273.514 53.1285C273.507 53.2763 273.491 53.4319 273.468 53.5874C273.226 55.112 272.76 56.8466 273.826 58.1768C274.059 58.4724 274.386 58.7368 274.783 58.7835C275.343 58.8535 275.88 58.4646 276.105 57.9901C276.339 57.5156 276.339 56.9789 276.331 56.4577C276.323 54.8787 276.308 53.2918 276.3 51.7128C276.3 51.2694 276.323 50.7638 276.681 50.4682C276.907 50.2816 277.226 50.2193 277.529 50.2271C278.844 50.2582 279.817 51.4794 279.964 52.6773C280.12 53.8752 279.677 55.0654 279.342 56.2321C278.844 57.9901 278.572 59.7947 278.541 61.6149C278.517 62.735 278.626 63.9407 279.412 64.7963C279.583 64.983 279.793 65.1541 280.058 65.193C280.75 65.2942 281.139 64.5007 281.264 63.8707C282.151 59.2891 280.33 54.8398 281.108 50.336C281.163 50.0249 283.225 46.0267 282.859 45.9956ZM262.147 31.0763H258.723C258.218 31.0763 257.082 31.263 257.082 30.2129C257.082 29.4739 257.86 27.0781 258.039 26.4014C258.218 25.7247 258.996 22.0376 260.093 22.0376C261.096 22.0376 261.875 24.309 262.287 25.2968C262.653 26.1603 263.975 29.3572 263.975 30.2751C263.975 31.193 262.606 31.0763 262.147 31.0763Z"
    stroke="#231815"
    stroke-width="1.5"
    stroke-miterlimit="10"
  />
  <path
    d="M312.853 27.6613C314.285 25.4211 315.156 22.5197 315.156 18.9649C315.156 9.74734 309.173 4.88574 302.956 4.88574C301.034 4.88574 298.568 7.30487 291.947 7.30487C290.803 7.30487 289.706 7.18042 288.562 7.18042C287.146 7.18042 285.131 7.73269 285.131 10.1907C285.131 14.0644 289.379 12.0342 289.379 16.6469L287.823 39.1269C287.823 44.1674 284.485 42.075 284.485 45.4587C284.485 47.2789 285.901 48.2823 287.613 48.8346C288.01 49.2313 288.601 49.6902 288.796 49.9858C289.527 51.1137 289.815 52.3894 289.854 53.6184C289.924 55.6408 289.395 57.6477 289.379 59.6701C289.379 60.6735 289.877 61.9648 291.301 62.027C292.095 62.0659 292.826 61.6381 293.145 61.1247C293.464 60.6113 293.464 60.0279 293.417 59.4678C293.114 56.2086 291.332 52.8794 292.748 49.768C292.787 49.6824 292.841 49.5891 292.904 49.5113C292.997 49.5113 293.09 49.5113 293.168 49.5113C293.394 49.5113 293.682 49.5113 294.009 49.4957C294.188 49.6902 294.296 49.9625 294.32 50.188C294.421 51.1526 294.499 52.1327 294.631 53.0972C294.701 53.595 294.942 54.4974 295.471 54.7385C296.265 55.1119 296.638 54.1162 296.514 53.3461C296.382 52.4905 296.07 51.4715 296.981 50.8959C297.23 50.7403 297.541 50.6392 297.774 50.4758C298.335 50.0791 298.257 49.5035 298.226 48.9201C300.147 48.3756 301.813 47.3333 301.813 45.3187C301.813 41.7561 298.475 44.9531 298.342 37.2679V33.7053C298.342 33.0285 298.529 32.7252 299.074 32.7252C300.303 32.7252 301.68 33.0285 303.05 33.0285C303.369 33.0285 303.68 33.0052 303.991 32.9819C303.976 33.9231 303.89 34.8721 303.906 35.8133C303.929 36.9412 304.061 38.1857 304.722 39.1425C305.314 39.9981 306.177 40.0837 306.535 38.8858C306.73 38.248 306.574 37.5634 306.395 36.9334C306.131 36.0233 305.501 34.242 305.516 32.7719C306.535 32.5541 307.516 32.204 308.442 31.7217C308.582 32.1651 308.652 32.6474 308.691 33.0052C308.745 33.5886 308.8 34.1642 308.862 34.7476C308.901 35.1754 309.002 35.6888 309.391 35.8599C309.679 35.9844 310.021 35.8677 310.254 35.6577C310.605 35.3388 310.916 34.8176 310.885 34.3431C310.799 32.9819 309.982 31.5895 310.527 30.3372C311.165 29.8004 311.756 29.1859 312.293 28.4859C312.558 28.2136 312.736 27.9414 312.861 27.6536L312.853 27.6613ZM298.342 23.3287V14.1111C298.342 12.8821 298.296 12.1431 300.077 12.1431C303.135 12.1431 304.598 15.3401 304.598 19.2138C304.598 23.0876 303.408 26.0356 300.396 26.0356C297.93 26.0356 298.342 24.6199 298.342 23.3287Z"
    fill="#F7C544"
    stroke="#231815"
    stroke-width="1.5"
    stroke-miterlimit="10"
  />
</svg>
