;<svg width="108" height="51" viewBox="0 0 108 51" fill="none" xmlns="http://www.w3.org/2000/svg">
  <path
    d="M14.0815 1C17.3718 1 19.4854 3.31756 20.3537 3.31756C21.0906 3.31756 21.2906 2.98566 21.8618 2.98566C23.2728 2.98566 25.0836 5.96701 25.0836 11.2144C25.0836 13.9096 23.9411 16.1814 21.9646 16.1814C18.5086 16.1814 19.3826 7.80961 13.4074 7.80961C10.8254 7.80961 9.75145 11.2144 9.75145 13.8124C9.75145 20.8108 12.402 25.5718 17.0976 25.5718C21.3591 25.5718 21.9932 22.3101 23.0386 22.3101C24.0097 22.3101 24.4838 23.918 24.4838 25.0969C24.4838 27.1798 22.9415 31.5288 21.262 31.5288C20.1195 31.5288 17.7717 35.4658 13.813 35.4658C6.76956 35.4715 1 27.6204 1 18.1156C1 8.61074 7.47219 1 14.0815 1Z"
    stroke="#231815"
    stroke-width="1.5"
  />
  <path
    d="M48.642 27.0086C48.642 28.4278 48.7791 29.1373 49.6817 29.8469C50.3501 30.3676 50.8242 30.6538 50.8242 31.8326C50.8242 33.0114 53.0406 35.3289 46.4313 35.3289C44.9575 35.3289 40.6618 35.2832 40.6618 32.113C40.5304 28.4735 43.0096 32.4906 43.0096 22.8942C43.0096 20.3421 42.604 20.4336 40.9303 20.4336C36.2346 20.4336 36.6688 20.6225 36.6688 24.8799C36.6688 31.3576 38.7481 28.7597 38.7481 31.8326C38.7481 35.1401 33.8526 35.3289 32.2416 35.3289C30.6307 35.3289 26.0322 35.1401 26.0322 31.9241C26.0322 30.9342 26.5349 30.3161 27.1062 29.9385C28.3115 29.1373 28.7513 29.2747 28.7513 19.3922C28.7513 6.81441 28.62 7.85588 27.3746 6.91169C26.872 6.53402 26.2664 6.11056 26.2664 5.16065C26.2664 1.52123 31.8703 1.14355 33.7497 1.14355C35.1607 1.14355 39.0509 1.37817 39.0509 4.21646C39.0509 5.68139 38.4796 6.20212 37.7084 6.86591C36.8687 7.52971 36.6688 8.09622 36.6688 12.3022C36.6688 14.9516 37.5428 14.6197 39.1537 14.6197H40.8674C43.0838 14.6197 43.0153 14.1448 43.0153 12.6798C43.0153 7.52399 42.4441 7.19209 42.0099 6.86591C41.3701 6.34518 40.7703 5.92173 40.7703 4.69142C40.7703 3.79301 40.6332 1.14355 47.3111 1.14355C48.8877 1.14355 51.0641 1.18933 51.0641 4.50258C51.0641 5.54405 50.6928 6.25362 50.0245 6.72286C49.0191 7.33515 48.6478 7.19781 48.6478 14.7113V27.0029L48.642 27.0086Z"
    stroke="#231815"
    stroke-width="1.5"
  />
  <path
    d="M58.9472 17.7381C59.9868 14.4764 60.221 10.9113 60.221 7.18037C60.221 3.91862 61.295 1.45801 64.2826 1.45801C67.2702 1.45801 70.1892 5.06882 71.4974 8.1875C72.0686 9.56087 77.1356 24.027 78.3409 27.9068C79.4491 31.5004 81.2599 29.3259 81.2599 32.0211C81.2599 35.4717 76.4958 35.3287 74.8163 35.3287C70.0179 35.3287 67.1331 35.2829 67.1331 32.3473C67.1331 30.0755 69.1781 30.9282 69.1781 29.2744C69.1781 27.1457 68.3384 26.9568 62.9402 26.9568C61.1979 26.9568 60.1582 27.0541 60.1582 29.366C60.1582 31.2086 62.3061 29.9782 62.3061 32.4389C62.3061 35.2772 58.6844 35.3229 57.342 35.3229C52.5435 35.3229 52.1094 34.0468 52.1094 32.5361C52.1094 30.3159 53.9202 30.9739 54.897 29.2744C55.6339 27.9983 56.3423 25.7265 56.845 24.2158L58.9586 17.7381H58.9472ZM65.9906 21.1429C66.3276 21.1429 67.333 21.2402 67.333 20.5306C67.333 19.8211 66.3619 17.3604 66.0934 16.7024C65.7907 15.947 65.2194 14.196 64.4825 14.196C63.6771 14.196 63.1058 17.0343 62.9744 17.555C62.8373 18.0757 62.2718 19.9183 62.2718 20.4849C62.2718 21.2917 63.1115 21.1486 63.4771 21.1486H65.9906V21.1429Z"
    stroke="#231815"
    stroke-width="1.5"
  />
  <path
    d="M85.9898 10.047C85.9898 6.49919 82.8708 8.06139 82.8708 5.08004C82.8708 3.18594 84.3446 2.76249 85.3899 2.76249C86.2297 2.76249 87.0351 2.85977 87.8749 2.85977C92.7419 2.85977 94.547 1 95.958 1C100.522 1 104.915 4.7367 104.915 11.8267C104.915 18.9167 100.688 22.6534 96.0265 22.6534C95.0211 22.6534 94.0157 22.4188 93.1075 22.4188C92.7019 22.4188 92.5705 22.6534 92.5705 23.1741V25.9152C92.6733 31.8264 95.1182 29.3657 95.1182 32.1067C95.1182 35.1797 90.2855 35.3227 88.7774 35.3227C87.3665 35.3227 82.4023 35.2769 82.4023 32.204C82.4023 29.6061 84.853 31.2083 84.853 27.3343L85.9955 10.0413L85.9898 10.047ZM93.8386 6.5793C92.5305 6.5793 92.5648 7.14581 92.5648 8.09V15.1857C92.5648 16.1757 92.262 17.2687 94.0728 17.2687C96.2893 17.2687 97.1576 14.9053 97.1576 12.0213C97.1576 9.1372 96.0836 6.58502 93.8386 6.58502V6.5793Z"
    stroke="#231815"
    stroke-width="1.5"
  />
  <path
    d="M25.1353 23.9524C24.0956 23.9524 23.4558 27.0711 19.1943 27.0711C14.4987 27.0711 11.8481 22.5161 11.8481 15.8266C11.8481 13.3374 12.9221 10.0814 15.5041 10.0814C21.4736 10.0814 20.6053 18.087 24.0613 18.087C26.0378 18.087 27.1803 15.9182 27.1803 13.3374C27.1803 8.31889 25.3695 5.46916 23.9585 5.46916C23.3872 5.46916 23.1873 5.78389 22.4504 5.78389C21.5764 5.78389 19.4628 3.56934 16.1782 3.56934C9.56887 3.56934 3.09668 10.6708 3.09668 19.941C3.09668 24.0439 4.27344 27.8207 6.21567 30.7334C6.21567 30.7563 6.21567 30.7734 6.21567 30.7963C6.65553 33.7891 7.2382 36.4557 6.83261 39.5229C6.74693 40.1467 6.6441 40.799 6.85546 41.3884C7.06682 41.9778 7.73518 42.4642 8.31785 42.2296C9.14044 41.3083 9.01476 39.912 9.04904 38.676C9.08331 37.44 9.56316 35.9464 10.7799 35.7233C11.8024 35.5402 12.7164 36.3985 13.2877 37.2683C14.8129 39.603 15.287 42.6016 14.5558 45.2968C14.2302 46.5042 13.6704 47.7688 14.0646 48.9534C14.2531 49.5256 14.7672 50.0578 15.3613 49.9948C15.8297 49.9433 16.1953 49.5313 16.3381 49.0793C16.4809 48.6272 16.4409 48.1465 16.4067 47.6773C16.2296 45.4456 16.0525 43.2138 15.8697 40.9878C15.8297 40.49 15.7954 39.975 15.9782 39.5115C16.161 39.048 16.6352 38.6588 17.1264 38.7447C17.9833 38.8992 18.029 40.1009 17.8576 40.9535C17.6977 41.7489 17.5377 42.5443 17.3778 43.3397C17.2578 43.9349 17.3149 44.7932 17.9205 44.8562C18.2403 44.8905 18.5203 44.6387 18.7145 44.3755C20.3425 42.1495 18.6631 38.8706 19.6456 36.2955C19.8684 35.7118 20.2168 35.1968 20.6224 34.7219C21.8906 33.7605 22.7932 32.7705 23.3815 32.7705C25.061 32.7705 26.6034 28.6104 26.6034 26.619C26.6034 25.486 26.1349 23.9524 25.1581 23.9524H25.1353Z"
    fill="#F7C544"
    stroke="#231815"
    stroke-width="1.5"
    stroke-miterlimit="10"
  />
  <path
    d="M52.9144 33.0567C52.9144 31.9236 52.446 31.6547 51.7719 31.1568C50.8636 30.4816 50.7322 29.8006 50.7322 28.4444V16.685C50.7322 9.49771 51.1035 9.62932 52.1089 9.04564C52.7773 8.59358 53.1486 7.91261 53.1486 6.92265C53.1486 3.75818 50.9722 3.7124 49.3955 3.7124C42.7177 3.7124 42.8548 6.24169 42.8548 7.10576C42.8548 8.27885 43.4603 8.69086 44.0944 9.18298C44.5285 9.49771 45.0998 9.81816 45.0998 14.7451C45.0998 16.1471 45.1683 16.5992 42.9519 16.5992H41.2382C39.6273 16.5992 38.7533 16.9139 38.7533 14.3846C38.7533 10.3618 38.9532 9.81816 39.7929 9.18298C40.5641 8.5478 41.1353 8.04995 41.1353 6.6537C41.1353 3.9413 37.2452 3.7124 35.8342 3.7124C33.9548 3.7124 28.3509 4.07291 28.3509 7.55783C28.3509 8.46196 28.9564 8.86825 29.4591 9.22876C30.6987 10.1329 30.8358 9.1372 30.8358 21.1656C30.8358 30.6189 30.4017 30.4816 29.1906 31.2484C28.6194 31.6089 28.1167 32.1983 28.1167 33.1482C28.1167 36.2211 32.778 36.4042 34.3261 36.4042C35.8742 36.4042 40.8326 36.2211 40.8326 33.0567C40.8326 30.1154 38.7533 32.6046 38.7533 26.4073C38.7533 22.3387 38.3191 22.1556 43.0147 22.1556C44.6942 22.1556 45.0941 22.064 45.0941 24.5075C45.0941 33.6861 42.6091 29.8464 42.7462 33.3256C42.7462 34.8878 43.8944 35.6546 45.2026 36.0323C45.5339 36.3012 45.8652 36.5473 45.9681 36.6904C46.4765 37.3828 46.7564 38.2468 46.8535 39.0995C47.0134 40.4671 46.7678 41.8405 46.6079 43.2081C46.5107 44.0264 46.4593 44.902 46.8535 45.623C47.2476 46.344 48.253 46.7903 48.9214 46.3154C49.367 45.9949 49.5212 45.3826 49.4526 44.839C49.3841 44.2954 49.1442 43.7861 48.9442 43.2711C48.4187 41.8977 48.2016 40.4099 48.3102 38.945C48.3673 38.224 48.6472 37.3542 49.3555 37.2397C49.8982 37.1482 50.418 37.6059 50.578 38.1324C50.7379 38.6589 50.6351 39.2311 50.4923 39.7633C50.3609 40.2554 50.1953 40.7647 50.2809 41.2683C50.3666 41.7718 50.7951 42.2639 51.3035 42.2067C52.6345 42.0637 52.0175 39.9979 51.9147 39.2311C51.749 38.0065 51.869 36.6732 52.6687 35.7118C53.8398 34.9565 52.8972 33.7491 52.8972 33.0452L52.9144 33.0567Z"
    fill="#F7C544"
    stroke="#231815"
    stroke-width="1.5"
    stroke-miterlimit="10"
  />
  <path
    d="M83.3102 33.8123C83.3102 33.8123 83.2988 33.8123 83.2873 33.8123C83.3216 33.6349 83.3387 33.4403 83.3387 33.2401C83.3387 30.665 81.5279 32.7422 80.4197 29.3031C79.2144 25.595 74.1474 11.7583 73.5762 10.4479C72.268 7.46084 69.2804 4.01025 66.3614 4.01025C63.4423 4.01025 62.2998 6.36214 62.2998 9.48083C62.2998 13.0516 62.0656 16.4621 61.026 19.5808L58.9124 25.7781C58.4097 27.2259 57.707 29.3946 56.9644 30.6192C55.9933 32.2501 54.1768 31.6149 54.1768 33.7379C54.1768 35.1857 54.6109 36.4045 59.4094 36.4045C60.7518 36.4045 64.3735 36.3588 64.3735 33.6464C64.3735 31.2945 62.2256 32.4733 62.2256 30.7051C62.2256 28.4905 63.2652 28.399 65.0075 28.399C70.4115 28.399 71.2455 28.5821 71.2455 30.6135C71.2455 32.1986 69.2005 31.3803 69.2005 33.5548C69.2005 36.2844 71.9424 36.3988 76.5181 36.4045C76.6381 37.2686 76.4667 38.2815 76.4267 39.0597C76.421 39.1684 76.4096 39.2829 76.3924 39.3973C76.2153 40.5189 75.8726 41.795 76.6552 42.7735C76.8266 42.991 77.0665 43.1855 77.3578 43.2199C77.7691 43.2714 78.1633 42.9852 78.3289 42.6362C78.5003 42.2871 78.5003 41.8923 78.4946 41.5089C78.4889 40.3472 78.4775 39.1799 78.4717 38.0182C78.4717 37.6921 78.4889 37.3201 78.7517 37.1027C78.9173 36.9653 79.1515 36.9195 79.3743 36.9253C80.3397 36.9482 81.0538 37.8466 81.1623 38.7278C81.2766 39.6091 80.9509 40.4846 80.7053 41.3429C80.3397 42.6362 80.1398 43.9638 80.1169 45.3028C80.0998 46.1268 80.1798 47.0138 80.7567 47.6432C80.8824 47.7806 81.0366 47.9065 81.2309 47.9351C81.7393 48.0095 82.0249 47.4258 82.1163 46.9623C82.7675 43.5918 81.4308 40.3186 82.002 37.0054C82.042 36.7765 83.5558 33.8352 83.2873 33.8123H83.3102ZM68.0808 22.8368H65.5674C65.196 22.8368 64.362 22.9742 64.362 22.2016C64.362 21.658 64.9333 19.8955 65.0647 19.3977C65.1961 18.8998 65.7673 16.1874 66.5727 16.1874C67.3097 16.1874 67.8809 17.8584 68.1837 18.5851C68.4521 19.2203 69.4233 21.5722 69.4233 22.2474C69.4233 22.9227 68.4179 22.8368 68.0808 22.8368Z"
    fill="#F7C544"
  />
  <path
    d="M83.2873 33.8123C83.2988 33.8123 83.3102 33.8123 83.3102 33.8123H83.2873ZM83.2873 33.8123C83.3216 33.6349 83.3387 33.4403 83.3387 33.2401C83.3387 30.665 81.5279 32.7422 80.4197 29.3031C79.2144 25.595 74.1474 11.7583 73.5762 10.4479C72.268 7.46084 69.2804 4.01025 66.3614 4.01025C63.4423 4.01025 62.2998 6.36214 62.2998 9.48083C62.2998 13.0516 62.0656 16.4621 61.026 19.5808L58.9124 25.7781C58.4097 27.2259 57.707 29.3946 56.9644 30.6192C55.9933 32.2501 54.1768 31.6149 54.1768 33.7379C54.1768 35.1857 54.6109 36.4045 59.4094 36.4045C60.7518 36.4045 64.3735 36.3588 64.3735 33.6464C64.3735 31.2945 62.2256 32.4733 62.2256 30.7051C62.2256 28.4905 63.2652 28.399 65.0075 28.399C70.4115 28.399 71.2455 28.5821 71.2455 30.6135C71.2455 32.1986 69.2005 31.3803 69.2005 33.5548C69.2005 36.2844 71.9424 36.3988 76.5181 36.4045C76.6381 37.2686 76.4667 38.2815 76.4267 39.0597C76.421 39.1684 76.4096 39.2829 76.3924 39.3973C76.2153 40.5189 75.8726 41.795 76.6552 42.7735C76.8266 42.991 77.0665 43.1855 77.3578 43.2199C77.7691 43.2714 78.1633 42.9852 78.3289 42.6362C78.5003 42.2871 78.5003 41.8923 78.4946 41.5089C78.4889 40.3472 78.4775 39.1799 78.4717 38.0182C78.4717 37.6921 78.4889 37.3201 78.7517 37.1027C78.9173 36.9653 79.1515 36.9195 79.3743 36.9253C80.3397 36.9482 81.0538 37.8466 81.1623 38.7278C81.2766 39.6091 80.9509 40.4846 80.7053 41.3429C80.3397 42.6362 80.1398 43.9638 80.1169 45.3028C80.0998 46.1268 80.1798 47.0138 80.7567 47.6432C80.8824 47.7806 81.0366 47.9065 81.2309 47.9351C81.7393 48.0095 82.0249 47.4258 82.1163 46.9623C82.7675 43.5918 81.4308 40.3186 82.002 37.0054C82.042 36.7765 83.5558 33.8352 83.2873 33.8123ZM68.0808 22.8368H65.5674C65.196 22.8368 64.362 22.9742 64.362 22.2016C64.362 21.658 64.9333 19.8955 65.0647 19.3977C65.1961 18.8998 65.7673 16.1874 66.5727 16.1874C67.3097 16.1874 67.8809 17.8584 68.1837 18.5851C68.4521 19.2203 69.4233 21.5722 69.4233 22.2474C69.4233 22.9227 68.4179 22.8368 68.0808 22.8368Z"
    stroke="#231815"
    stroke-width="1.5"
    stroke-miterlimit="10"
  />
  <path
    d="M105.309 20.3244C106.36 18.6764 107 16.5419 107 13.9268C107 7.14581 102.607 3.56934 98.0428 3.56934C96.6318 3.56934 94.821 5.34899 89.9597 5.34899C89.1199 5.34899 88.3145 5.25743 87.4748 5.25743C86.4351 5.25743 84.9556 5.66372 84.9556 7.47199C84.9556 10.3217 88.0746 8.82818 88.0746 12.2215L86.9321 28.7592C86.9321 32.4672 84.4814 30.9279 84.4814 33.4172C84.4814 34.7562 85.5211 35.4944 86.7778 35.9007C87.0692 36.1925 87.5033 36.5301 87.6461 36.7476C88.1831 37.5773 88.3945 38.5158 88.423 39.4199C88.4744 40.9077 88.086 42.3841 88.0746 43.8719C88.0746 44.6101 88.4402 45.56 89.4855 45.6058C90.0682 45.6344 90.6052 45.3197 90.8394 44.942C91.0736 44.5643 91.0736 44.1351 91.0393 43.7231C90.8165 41.3255 89.5084 38.8763 90.548 36.5873C90.5766 36.5244 90.6166 36.4557 90.6623 36.3985C90.7309 36.3985 90.7994 36.3985 90.8565 36.3985C91.0222 36.3985 91.2335 36.3985 91.4735 36.3871C91.6049 36.5301 91.6848 36.7304 91.702 36.8964C91.7762 37.6059 91.8333 38.3269 91.9305 39.0365C91.9819 39.4028 92.159 40.0665 92.5474 40.2439C93.1301 40.5186 93.4043 39.7861 93.3129 39.2196C93.2158 38.5902 92.9873 37.8405 93.6556 37.4171C93.8384 37.3026 94.0669 37.2283 94.2383 37.1081C94.6496 36.8162 94.5925 36.3928 94.5696 35.9636C95.9806 35.563 97.203 34.7963 97.203 33.3142C97.203 30.6933 94.7524 33.0452 94.6553 27.3915V24.7707C94.6553 24.2728 94.7924 24.0497 95.1923 24.0497C96.0948 24.0497 97.1059 24.2728 98.1113 24.2728C98.3455 24.2728 98.574 24.2557 98.8025 24.2385C98.7911 24.9309 98.7283 25.629 98.7397 26.3214C98.7568 27.1512 98.8539 28.0668 99.3395 28.7706C99.7736 29.4001 100.408 29.463 100.67 28.5818C100.813 28.1125 100.699 27.609 100.568 27.1455C100.373 26.4759 99.9107 25.1655 99.9222 24.084C100.67 23.9238 101.39 23.6663 102.07 23.3115C102.173 23.6376 102.224 23.9924 102.253 24.2557C102.293 24.6848 102.333 25.1083 102.379 25.5375C102.407 25.8522 102.481 26.2299 102.767 26.3558C102.978 26.4473 103.23 26.3615 103.401 26.207C103.658 25.9724 103.887 25.589 103.864 25.2399C103.801 24.2385 103.201 23.2142 103.601 22.2929C104.069 21.8981 104.504 21.446 104.898 20.931C105.092 20.7307 105.223 20.5304 105.315 20.3187L105.309 20.3244ZM94.6553 17.1371V10.3561C94.6553 9.45192 94.621 8.9083 95.9292 8.9083C98.1742 8.9083 99.2481 11.2602 99.2481 14.1099C99.2481 16.9597 98.3741 19.1284 96.1634 19.1284C94.3525 19.1284 94.6553 18.087 94.6553 17.1371Z"
    fill="#F7C544"
    stroke="#231815"
    stroke-width="1.5"
    stroke-miterlimit="10"
  />
</svg>
